<svg height="177.49915mm" viewBox="0 0 176.82872 177.49915" width="176.82872mm" xmlns="http://www.w3.org/2000/svg"><g transform="translate(-15.442657 -25.936142)"><g><rect fill="#f3cf73" height="62.306107" opacity=".941614" rx="1.570146" width="176.82872" x="15.442657" y="141.12918"/><ellipse cx="110.60392" cy="152.46419" fill-opacity=".187477" rx="46.986355" ry="6.098245" transform="matrix(.99986314 .0165442 .01329932 .99991156 0 0)"/></g><g><path d="m90.589376 85.7915c-25.530036-2.476805-46.51188-1.539788-46.826504 1.83225-.314619 3.372036-.693638 6.70066-1.019763 10.28124-1.334738 14.65404 2.566281 29.88674 9.949356 40.29133 3.69154 5.20229 8.261603 9.56543 13.498667 12.78265 5.237065 3.21722 11.16456 4.29277 17.52453 4.90978 6.359971.61702 12.493844.71126 18.207938-1.44422 3.79801-1.43269 7.39877-3.42231 10.73467-5.88561 4.59794-.24155 9.98319-.9425 13.65279-2.1904 5.6491-1.92103 9.22394-3.4599 14.12537-6.5265 4.90144-3.06661 10.94066-8.72979 13.09637-13.86386s2.1328-9.97167.34091-13.72495c-1.79189-3.75329-4.47028-5.67858-8.29512-6.87669-3.22491-1.01019-7.92694.24535-10.77707 1.61323.006-.0487.0134-.0974.0194-.14609.5088-4.15786.91982-6.48411 1.31435-10.05329s-20.01583-8.522065-45.545864-10.99887zm52.683204 24.37772c1.35849.15631 2.65067.58569 3.72929 1.42406 3.45158 2.6828 3.3086 7.35809 2.43949 11.37954-.86911 4.02144-4.50226 7.17632-7.50538 9.97497-3.00311 2.79865-5.21817 4.4314-10.40247 6.01493-2.85001.87053-7.21979 1.88171-11.33467 2.6728 6.68147-7.66435 11.55174-18.30438 13.77946-29.54255.2971-.14837.6085-.29439.94341-.4339 2.05378-.85549 5.36218-1.83374 8.35087-1.48985z" fill="#f5f2e3"/><path d="m142.48764 84.990623a44.188103 6.7055721 0 0 1 -44.188102 6.705573 44.188103 6.7055721 0 0 1 -44.188103-6.705573 44.188103 6.7055721 0 0 1 44.188103-6.705572 44.188103 6.7055721 0 0 1 44.188102 6.705572z" fill="#b1a06e" transform="matrix(.99532697 .09656198 -.09656198 .99532697 0 0)"/><g fill="none" stroke-linecap="round" stroke-width="2.065"><path d="m52.676337 125.96124c-2.179213-5.12506-5.230374-14.36784-4.981153-22.36624" stroke="#fcfae9"/><path d="m57.477702 133.90523c-.801354-.96913-2.670524-3.50869-3.103506-4.30069" stroke="#fcf7dc"/><path d="m149.38081 109.68751c-2.08712-2.10977-4.08832-2.74861-5.27124-2.89392" stroke="#fcfae9"/><path d="m57.477702 133.90523c-.801354-.96913-2.670524-3.50869-3.103506-4.30069" stroke="#fcfae9"/></g><path d="m48.938228 100.12123a1.2094804 1.2312152 5.5412279 0 1 -1.322717 1.10867 1.2094804 1.2312152 5.5412279 0 1 -1.08494-1.34225 1.2094804 1.2312152 5.5412279 0 1 1.322717-1.10868 1.2094804 1.2312152 5.5412279 0 1 1.08494 1.34226z" fill="#fcfae9"/><path d="m141.83647 107.17298a1.2094804 1.2312152 5.5412279 0 1 -1.32271 1.10867 1.2094804 1.2312152 5.5412279 0 1 -1.08494-1.34225 1.2094804 1.2312152 5.5412279 0 1 1.32271-1.10868 1.2094804 1.2312152 5.5412279 0 1 1.08494 1.34226z" fill="#fcfae9"/></g><g><path d="m47.944408 95.5966c1.117467-2.22998 6.507917-2.94814 12.095361-3.77208 5.587444-.82395 14.360846 1.31385 21.082961 1.14972 6.722111-.16409 12.9731 1.95069 19.21187-2.937247 6.23877-4.88794 13.05531-12.875498 13.96093-21.136278.90562-8.260779 10.14896-.359225 5.19295 3.951662-4.95602 4.310887 3.63175 2.292395 6.11174-1.528551 2.47998-3.820946 9.87254-9.760242 15.16349-12.63315 5.29095-2.872907 10.68079-4.50889 16.07096-4.473931 5.39017.03496 5.88713 6.346335 1.33021 8.035732s-11.57936 3.07373-9.70469 8.051002c1.87466 4.977271 8.7224-1.918956 12.36273-3.423252 3.64032-1.504296 12.48775-2.344566 11.09653 3.422652-1.39121 5.767218-11.05723 4.377602-14.8284 5.521605-3.77117 1.144002-12.09708 6.251317-7.18892 5.876716s11.29748 1.207774 8.26056 5.064396c-3.03691 3.856621-10.43402-.907296-15.75061.884274-5.31658 1.791569-11.46549 4.5184-12.90264 9.77049s2.29552 6.799-5.73939 9.1309-21.51031 1.84684-33.921049-.98367c-12.410735-2.83052-34.062024-6.78613-40.605348-9.42507-6.543326-2.63893-.745871-.31288-.96238-.40394-.216511-.091-1.454332 2.088-.336865-.14198z" fill="none"/><g fill="#f3cf73" fill-opacity=".945098" stroke-width=".431016" transform="translate(-.222456 -8.465797)"><path d="m91.608275-144.44992q.499977-.70687 1.396488-1.17237.913752-.48273 2.103353-.48273 1.189602 0 2.068873.46549.896511.4655 1.396488 1.15512.517218.68963.827549 1.62062.517218 1.55165.517218 3.29296 0 3.12054-1.344767 4.94805-.499977.68962-1.396488 1.13788-.879271.44825-2.051632.44825-1.172361 0-2.086113-.44825-.896511-.4655-1.413729-1.13788-.499977-.67239-.827549-1.60338-.499977-1.48269-.499977-3.36191 0-1.72407.396534-2.94815.413774-1.22408.913752-1.9137zm3.482601 8.34445q1.775782 0 1.775782-3.37916v-.10344q0-3.46537-1.758542-3.46537-1.758541 0-1.758541 3.48261 0 3.46536 1.741301 3.46536z" transform="matrix(.18895235 .98198626 -.98198626 .18895235 0 0)"/><path d="m137.83922 20.853614q.44825-.448255.96547-.448255.53446 0 .82755.0862.29309.0862.44825.206887.15517.103443.24137.362052.0862.293091.0862.913752v9.603015q0 .396534-.0345.603421-.0172.189646-.15516.448255-.24137.465497-1.34477.465497-1.06892 0-1.32752-.448256-.13793-.258609-.17241-.465496-.0172-.224128-.0172-.637902v-6.154895l-.22413.206887q-.70686.534459-1.20684.534459-.49998 0-1.05168-.603421-.53446-.603421-.53446-1.068917 0-.465496.62067-1.017196l2.82745-2.551609z" transform="matrix(.91494941 .40356855 -.40356855 .91494941 0 0)"/><path d="m50.174849-176.22287q.499977-.70687 1.396488-1.17236.913752-.48274 2.103354-.48274 1.189601 0 2.068872.4655.896511.46549 1.396488 1.15512.517218.68962.827549 1.62061.517218 1.55166.517218 3.29296 0 3.12055-1.344767 4.94805-.499977.68962-1.396488 1.13788-.879271.44825-2.051632.44825-1.172361 0-2.086113-.44825-.896511-.4655-1.413729-1.13788-.499977-.67238-.827549-1.60338-.499977-1.48269-.499977-3.36191 0-1.72406.396534-2.94815.413774-1.22408.913752-1.9137zm3.482601 8.34445q1.775782 0 1.775782-3.37916v-.10344q0-3.46536-1.758541-3.46536-1.758542 0-1.758542 3.4826 0 3.46536 1.741301 3.46536z" transform="matrix(-.24078455 .97057859 -.97057859 -.24078455 0 0)"/><path d="m143.06959-79.265629q.49998-.706864 1.39649-1.172361.91375-.482736 2.10336-.482736 1.1896 0 2.06887.465496.89651.465496 1.39649 1.15512.51721.689624.82754 1.620617.51722 1.551654.51722 3.292954 0 3.120549-1.34476 4.948053-.49998.689624-1.39649 1.137879-.87927.448256-2.05163.448256-1.17236 0-2.08612-.448256-.89651-.465496-1.41373-1.137879-.49997-.672384-.82754-1.603376-.49998-1.482692-.49998-3.361917 0-1.72406.39653-2.948143.41378-1.224083.91375-1.913707zm3.4826 8.344451q1.77579 0 1.77579-3.379158v-.103443q0-3.465361-1.75854-3.465361-1.75855 0-1.75855 3.482601 0 3.465361 1.7413 3.465361z" transform="matrix(.47064292 .88232377 -.88232377 .47064292 0 0)"/><path d="m152.79069 42.759998q.49998-.706864 1.39649-1.17236.91375-.482737 2.10336-.482737 1.1896 0 2.06887.465496.89651.465496 1.39649 1.15512.51721.689624.82754 1.620617.51722 1.551654.51722 3.292954 0 3.120549-1.34476 4.948053-.49998.689624-1.39649 1.137879-.87927.448256-2.05163.448256-1.17236 0-2.08612-.448256-.89651-.465496-1.41373-1.137879-.49997-.672384-.82754-1.603376-.49998-1.482692-.49998-3.361917 0-1.72406.39653-2.948143.41378-1.224083.91375-1.913707zm3.4826 8.344451q1.77579 0 1.77579-3.379158v-.103443q0-3.465361-1.75854-3.465361-1.75855 0-1.75855 3.482601 0 3.465361 1.7413 3.465361z" transform="matrix(.91918856 .39381771 -.39381771 .91918856 0 0)"/><path d="m144.03399 14.034496q.49998-.706864 1.39649-1.17236.91376-.482737 2.10336-.482737 1.1896 0 2.06887.465496.89651.465496 1.39649 1.15512.51722.689624.82755 1.620617.51721 1.551654.51721 3.292954 0 3.120549-1.34476 4.948053-.49998.689624-1.39649 1.137879-.87927.448256-2.05163.448256-1.17236 0-2.08612-.448256-.89651-.465496-1.41372-1.137879-.49998-.672384-.82755-1.603376-.49998-1.482692-.49998-3.361917 0-1.72406.39653-2.948143.41378-1.224083.91375-1.913707zm3.48261 8.344451q1.77578 0 1.77578-3.379158v-.103443q0-3.465361-1.75854-3.465361-1.75854 0-1.75854 3.482601 0 3.465361 1.7413 3.465361z" transform="matrix(.76396551 .64525708 -.64525708 .76396551 0 0)"/><path d="m101.68195-157.29546q.44826-.44825.96547-.44825.53446 0 .82755.0862.29309.0862.44826.20689.15516.10344.24137.36205.0862.29309.0862.91375v9.60302q0 .39653-.0345.60342-.0172.18964-.15517.44825-.24136.4655-1.34476.4655-1.06892 0-1.32753-.44826-.13792-.2586-.17241-.46549-.0172-.22413-.0172-.6379v-6.1549l-.22412.20689q-.70687.53446-1.206846.53446-.499977 0-1.051676-.60342-.534459-.60342-.534459-1.06892 0-.4655.620662-1.0172l2.827459-2.55161z" transform="matrix(.14327609 .98968276 -.98968276 .14327609 0 0)"/><path d="m132.88284-112.5652q.44826-.44826.96547-.44826.53446 0 .82755.0862.29309.0862.44826.20688.15516.10345.24137.36206.0862.29309.0862.91375v9.60301q0 .39654-.0345.60342-.0172.18965-.15517.44826-.24136.46549-1.34476.46549-1.06892 0-1.32753-.44825-.13792-.25861-.17241-.4655-.0172-.22412-.0172-.6379v-6.15489l-.22412.20688q-.70687.53446-1.20685.53446-.49997 0-1.05167-.60342-.53446-.60342-.53446-1.06892 0-.46549.62066-1.01719l2.82746-2.55161z" transform="matrix(.37662525 .92636571 -.92636571 .37662525 0 0)"/><path d="m149.4369-38.745743q.44826-.448256.96548-.448256.53445 0 .82754.0862.2931.0862.44826.206887.15517.103444.24137.362053.0862.29309.0862.913752v9.603014q0 .396534-.0345.603421-.0172.189647-.15516.448256-.24137.465496-1.34477.465496-1.06892 0-1.32753-.448256-.13792-.258609-.1724-.465496-.0172-.224128-.0172-.637902v-6.154894l-.22413.206887q-.70687.534458-1.20684.534458-.49998 0-1.05168-.603421-.53446-.603421-.53446-1.068917 0-.465496.62066-1.017195l2.82746-2.551609z" transform="matrix(.69848322 .71562643 -.71562643 .69848322 0 0)"/><path d="m144.66701-61.518376q.44825-.448256.96547-.448256.53446 0 .82755.0862.29309.0862.44825.206888.15517.103443.24137.362052.0862.29309.0862.913752v9.603015q0 .396533-.0345.603421-.0172.189646-.15516.448255-.24137.465496-1.34477.465496-1.06892 0-1.32753-.448255-.13792-.258609-.1724-.465496-.0172-.224128-.0172-.637903v-6.154894l-.22413.206887q-.70686.534459-1.20684.534459-.49998 0-1.05168-.603421-.53446-.603421-.53446-1.068917 0-.465497.62066-1.017196l2.82746-2.551609z" transform="matrix(.67612465 .73678725 -.73678725 .67612465 0 0)"/><path d="m144.55255-77.609101q.44825-.448256.96547-.448256.53446 0 .82755.0862.29309.0862.44826.206888.15516.103443.24137.362052.0862.29309.0862.913752v9.603015q0 .396533-.0345.603421-.0172.189646-.15517.448255-.24137.465496-1.34477.465496-1.06891 0-1.32752-.448255-.13793-.258609-.17241-.465496-.0172-.224128-.0172-.637903v-6.154894l-.22413.206887q-.70686.534459-1.20684.534459-.49998 0-1.05167-.603421-.53446-.603421-.53446-1.068917 0-.465497.62066-1.017196l2.82746-2.551609z" transform="matrix(.57062631 .82120985 -.82120985 .57062631 0 0)"/><path d="m140.66118-9.1729569q.49997-.7068646 1.39649-1.1723611.91375-.482737 2.10335-.482737 1.1896 0 2.06887.465497.89651.4654959 1.39649 1.1551199.51722.689624.82755 1.6206164.51722 1.5516541.51722 3.2929548 0 3.1205487-1.34477 4.94805232-.49998.68962398-1.39649 1.13787968-.87927.4482556-2.05163.4482556-1.17236 0-2.08611-.4482556-.89651-.4654963-1.41373-1.13787968-.49998-.67238342-.82755-1.60337585-.49998-1.48269167-.49998-3.36191707 0-1.7240601.39653-2.9481427.41378-1.2240827.91376-1.9137067zm3.4826 8.34445067q1.77578 0 1.77578-3.37915767v-.1034436q0-3.4653608-1.75854-3.4653608-1.75854 0-1.75854 3.4826014 0 3.46536067 1.7413 3.46536067z" transform="matrix(.73438884 .67872898 -.67872898 .73438884 0 0)"/><path d="m152.19499-18.051961q.44826-.448255.96547-.448255.53446 0 .82755.0862.29309.0862.44826.206887.15516.103444.24137.362053.0862.29309.0862.913751v9.603015q0 .3965338-.0345.603421-.0172.1896466-.15517.4482556-.24137.4654962-1.34476.4654962-1.06892 0-1.32753-.4482556-.13793-.258609-.17241-.4654962-.0172-.2241278-.0172-.6379022v-6.1548948l-.22413.206888q-.70686.534458-1.20684.534458-.49997 0-1.05167-.603421-.53446-.603421-.53446-1.068917 0-.465496.62066-1.017196l2.82746-2.551608z" transform="matrix(.71653574 .69755039 -.69755039 .71653574 0 0)"/><path d="m135.01559-28.790623q.44826-.448256.96548-.448256.53445 0 .82754.0862.29309.0862.44826.206887.15517.103444.24137.362053.0862.29309.0862.913752v9.603014q0 .396534-.0345.603421-.0172.189647-.15517.448256-.24136.465496-1.34476.465496-1.06892 0-1.32753-.448256-.13792-.258609-.1724-.465496-.0172-.224128-.0172-.637902v-6.154894l-.22413.206887q-.70687.534458-1.20684.534458-.49998 0-1.05168-.603421-.53446-.603421-.53446-1.068917 0-.465496.62066-1.017195l2.82746-2.551609z" transform="matrix(.49622972 .86819126 -.86819126 .49622972 0 0)"/><path d="m122.78238-30.413456q.49997-.706864 1.39649-1.172361.91375-.482736 2.10335-.482736 1.1896 0 2.06887.465496.89651.465496 1.39649 1.15512.51722.689624.82755 1.620616.51722 1.551654.51722 3.292955 0 3.120549-1.34477 4.948053-.49998.689624-1.39649 1.137879-.87927.448256-2.05163.448256-1.17236 0-2.08611-.448256-.89651-.465496-1.41373-1.137879-.49998-.672384-.82755-1.603376-.49998-1.482692-.49998-3.361917 0-1.724061.39654-2.948143.41377-1.224083.91375-1.913707zm3.4826 8.344451q1.77578 0 1.77578-3.379158v-.103443q0-3.465361-1.75854-3.465361-1.75854 0-1.75854 3.482601 0 3.465361 1.7413 3.465361z" transform="matrix(.39287965 .9195899 -.9195899 .39287965 0 0)"/><path d="m116.56485-17.063928q.49998-.706865 1.39649-1.172361.91375-.482737 2.10335-.482737 1.1896 0 2.06887.465497.89651.465496 1.39649 1.15512.51722.689624.82755 1.620616.51722 1.551654.51722 3.292955 0 3.1205487-1.34477 4.9480524-.49998.689624-1.39649 1.1378796-.87927.4482556-2.05163.4482556-1.17236 0-2.08611-.4482556-.89651-.4654962-1.41373-1.1378796-.49998-.6723835-.82755-1.6033759-.49998-1.4826915-.49998-3.3619175 0-1.72406.39654-2.948142.41377-1.224083.91375-1.913707zm3.4826 8.3444507q1.77578 0 1.77578-3.3791577v-.103444q0-3.46536-1.75854-3.46536-1.75854 0-1.75854 3.482601 0 3.4653607 1.7413 3.4653607z" transform="matrix(.39287965 .9195899 -.9195899 .39287965 0 0)"/><path d="m147.08491 51.013172q.44826-.448256.96548-.448256.53445 0 .82755.0862.29309.0862.44825.206887.15517.103444.24137.362053.0862.29309.0862.913752v9.603014q0 .396534-.0345.603421-.0172.189647-.15516.448256-.24137.465496-1.34477.465496-1.06892 0-1.32753-.448256-.13792-.258609-.1724-.465496-.0172-.224128-.0172-.637902v-6.154895l-.22413.206888q-.70687.534458-1.20684.534458-.49998 0-1.05168-.603421-.53446-.603421-.53446-1.068917 0-.465496.62066-1.017195l2.82746-2.551609z" transform="matrix(.91824933 .39600274 -.39600274 .91824933 0 0)"/></g></g></g><g transform="matrix(.97619412 .2168987 -.2168987 .97619412 5.941361 -69.938115)"><path d="m170.56031 74.10188c3.44851-2.129901 7.79128-2.482306 10.20459-2.253605" fill="none" stroke="#a4886f" stroke-linecap="round" stroke-width="2"/><path d="m175.41996 58.905014a1.0748183 1.0748183 0 0 1 -1.07482 1.074818 1.0748183 1.0748183 0 0 1 -1.07482-1.074818 1.0748183 1.0748183 0 0 1 1.07482-1.074818 1.0748183 1.0748183 0 0 1 1.07482 1.074818z" fill="#a4886f" transform="matrix(.99532697 .09656198 -.09656198 .99532697 0 0)"/></g><g transform="translate(-10.299945 -33.895125)"><path d="m157.41975 58.755029c3.02251-1.223617 8.41123-1.574711 10.41485-1.094061" fill="none" stroke="#a4886f" stroke-linecap="round" stroke-width="2"/><path d="m160.74405 44.566444a1.0748183 1.0748183 0 0 1 -1.07481 1.074819 1.0748183 1.0748183 0 0 1 -1.07482-1.074819 1.0748183 1.0748183 0 0 1 1.07482-1.074818 1.0748183 1.0748183 0 0 1 1.07481 1.074818z" fill="#a4886f" transform="matrix(.99532697 .09656198 -.09656198 .99532697 0 0)"/></g><g transform="matrix(.88593798 .46380373 -.46380373 .88593798 49.707322 -94.03618)"><path d="m159.73324 91.292788c3.4918-.247283 4.84988.282943 5.61396 1.011648" fill="none" stroke="#a4886f" stroke-linecap="round" stroke-width="2"/><path d="m165.96924 76.004555a1.0748183 1.0748183 0 0 1 -1.07482 1.074818 1.0748183 1.0748183 0 0 1 -1.07481-1.074818 1.0748183 1.0748183 0 0 1 1.07481-1.074819 1.0748183 1.0748183 0 0 1 1.07482 1.074819z" fill="#a4886f" transform="matrix(.99532697 .09656198 -.09656198 .99532697 0 0)"/></g><g transform="matrix(.99008701 .1404554 -.1404554 .99008701 -2.897721 -58.563221)"><path d="m115.18222 77.683593c.41358-2.049985.0695-4.855837 1.56007-6.368111" fill="none" stroke="#a4886f" stroke-linecap="round" stroke-width="2"/><path d="m123.4464 69.393234a1.0748183 1.0748183 0 0 1 -1.07482 1.074819 1.0748183 1.0748183 0 0 1 -1.07482-1.074819 1.0748183 1.0748183 0 0 1 1.07482-1.074818 1.0748183 1.0748183 0 0 1 1.07482 1.074818z" fill="#a4886f" transform="matrix(.99532697 .09656198 -.09656198 .99532697 0 0)"/></g><path d="m89.745037 100.86494c-25.530036-2.47681-44.403089-7.54058-45.210626-11.207615-.728344-3.307434 1.927893 4.364345 1.601768 7.944935 4.428016 1.83043 6.638026 7.39537 10.524921 8.75055 38.634332 13.46994 54.23789.98995 78.14042.63694.006-.0487.0134-.0974.0194-.14609.5088-4.15786.44865-13.01671-.86942-8.49921-1.00578 3.44718-18.67639 4.99729-44.206433 2.52048z" fill="#f5f2e3" transform="translate(-15.442657 -25.936142)"/><g transform="translate(-15.442657 -25.936142)"><ellipse cx="65.229286" cy="121.36204" fill="#553111" rx="7.516611" ry="12.162131" stroke-linecap="round" stroke-width="1.11007"/><ellipse cx="109.07618" cy="122.93792" fill="#553111" rx="7.516611" ry="12.162131" stroke-linecap="round" stroke-width="1.11007"/><path d="m91.45814 130.94321c-29.58819-2.87051-33.00071-6.79009-33.936609-11.04003-3.806395 8.76836-1.463997 14.4847 7.297887 17.93133 25.455986 4.723 27.018696-1.37142 52.833432.60678.58968-4.81878 1.26683-23.585-.26076-18.34941-1.16565 3.99513 3.65429 13.72183-25.933915 10.85132z" fill="#f5f2e3"/><path d="m110.13995 114.63062a9.9527216 7.9675188 0 0 1 -8.9255 5.7274 9.9527216 7.9675188 0 0 1 -9.759832-4.77623" fill="none" stroke="#553111" stroke-linecap="round" stroke-width="3.77035" transform="matrix(.99237032 .1232929 -.11269003 .99363019 0 0)"/><ellipse cx="-123.77058" cy="57.078644" fill="#f5f2e3" rx="3.355399" ry="2.623133" transform="matrix(-.09192133 -.99576627 .99992485 -.01225966 0 0)"/><g transform="matrix(.82598145 -.72789001 .72789001 .82598145 -135.95491 183.48858)"><path d="m173.44643 72.465119c1.49936-.887981 4.01249-1.798969 5.56575-1.1907" fill="none" stroke="#816651" stroke-linecap="round" stroke-width="2"/><path d="m188.592 54.749565a1.0748183 1.0748183 0 0 1 -1.07482 1.074818 1.0748183 1.0748183 0 0 1 -1.07482-1.074818 1.0748183 1.0748183 0 0 1 1.07482-1.074818 1.0748183 1.0748183 0 0 1 1.07482 1.074818z" fill="#816651" transform="matrix(.99532697 .09656198 -.09656198 .99532697 0 0)"/></g><g transform="matrix(.74416602 -.81134836 .81134836 .74416602 -84.327156 206.20671)"><path d="m173.44643 72.465119c1.20301-.947791 4.24417-1.517175 5.56575-1.1907" fill="none" stroke="#816651" stroke-linecap="round" stroke-width="2"/><circle cx="187.51718" cy="54.749565" fill="#816651" r="1.074818" transform="matrix(.99532697 .09656198 -.09656198 .99532697 0 0)"/></g><ellipse cx="-66.737541" cy="145.33171" fill="#f5f2e3" rx="3.363361" ry="2.629357" transform="matrix(.36205646 -.93215617 .90033207 .43520358 0 0)"/></g><text style="font-size:27.5981;font-family:FredokaOne;letter-spacing:1.33093;word-spacing:0;fill:#fff;stroke-width:.685442" transform="matrix(1.0476276 0 0 .95453766 -17.956178 -27.5719)" x="36.551903" y="193.08412"><tspan fill="#fff" font-family="Quicksand" font-size="27.5981" stroke-width=".685442" x="36.551903" y="193.08412">cosy<tspan fill="#fff" font-weight="bold" stroke-width=".685442">data</tspan></tspan></text><text style="font-size:11.8816;font-family:FredokaOne;letter-spacing:.572995;word-spacing:0;fill:#fff;stroke-width:.295098" transform="matrix(1.0476276 0 0 .95453766 -17.956178 -27.5719)" x="36.366302" y="208.54993"><tspan fill="#fff" font-family="Quicksand" font-size="11.8816" stroke-width=".295098" x="36.366302" y="208.54993">data is our cup of tea</tspan></text></svg>